<svg width="143" height="133" viewBox="0 0 143 133" fill="none" xmlns="http://www.w3.org/2000/svg">
<path d="M54.5608 19.3311C44.2967 19.3311 35.9758 27.6519 35.9758 37.9161C35.9758 48.1802 44.2967 56.5011 54.5608 56.5011C64.825 56.5011 73.1458 48.1802 73.1458 37.9161C73.1458 27.6519 64.825 19.3311 54.5608 19.3311Z" fill="#EEBC63"/>
<path d="M43.7253 50.9126L50.7279 46.7033" stroke="black" stroke-width="3.72309" stroke-linecap="round"/>
<path d="M51.2809 46.7383L59.434 51.7017" stroke="black" stroke-width="3.7638" stroke-linecap="round"/>
<path d="M59.6242 70.416L59.6942 51.9988" stroke="black" stroke-width="3.74487" stroke-linecap="round"/>
<path d="M43.4079 70.062L43.4761 51.6448" stroke="black" stroke-width="3.74487" stroke-linecap="round"/>
<path d="M33.9514 69.8906L33.968 37.6693" stroke="black" stroke-width="3.74482" stroke-linecap="round"/>
<path d="M48.2679 47.356L48.3546 37.4624" stroke="black" stroke-width="3.77149" stroke-linecap="round"/>
<path d="M48.3511 37.5786H33.8445" stroke="black" stroke-width="3.7628" stroke-linecap="round"/>
<path d="M64.3122 70.4194L64.7768 29.7113" stroke="black" stroke-width="3.75024" stroke-linecap="round"/>
<path d="M77.3904 70.4175L77.7995 19.7955" stroke="black" stroke-width="3.75" stroke-linecap="round"/>
<path d="M65.2565 28.9536L77.2243 20.1294" stroke="black" stroke-width="3.74813" stroke-linecap="round"/>
<path d="M28.4957 69.8756L33.129 69.7908" stroke="black" stroke-width="3.71628" stroke-linecap="round"/>
<path d="M25.5458 72.3905C24.0099 72.3905 22.7562 71.1367 22.7562 69.5972C22.7562 68.0614 24.0099 66.8076 25.5458 66.8076C27.0853 66.8076 28.3353 68.0614 28.3353 69.5972C28.339 71.1367 27.0853 72.3905 25.5458 72.3905ZM25.5458 68.3435C24.8562 68.3435 24.292 68.9076 24.292 69.5972C24.292 70.2868 24.8562 70.851 25.5458 70.851C26.2335 70.851 26.7995 70.2868 26.7995 69.5972C26.7995 68.9076 26.239 68.3435 25.5458 68.3435Z" fill="black"/>
<path d="M85.9636 72.3905C84.4278 72.3905 83.174 71.1367 83.174 69.5972C83.174 68.0614 84.4278 66.8076 85.9636 66.8076C87.5031 66.8076 88.7532 68.0614 88.7532 69.5972C88.7569 71.1367 87.5031 72.3905 85.9636 72.3905ZM85.9636 68.3435C85.274 68.3435 84.7099 68.9076 84.7099 69.5972C84.7099 70.2868 85.274 70.851 85.9636 70.851C86.6532 70.851 87.2174 70.2868 87.2174 69.5972C87.2174 68.9076 86.6569 68.3435 85.9636 68.3435Z" fill="black"/>
<path d="M60.0957 70.4121L64.364 70.3291" stroke="black" stroke-width="3.73119" stroke-linecap="round"/>
<path d="M49.3633 54.0913H53.9653V58.6933H49.3633V54.0913Z" fill="black"/>
<path d="M68.9587 34.4038H73.5607V39.0058H68.9587V34.4038Z" fill="black"/>
<path d="M38.8687 42.2119H43.4707V46.8139H38.8687V42.2119Z" fill="black"/>
<path d="M68.9587 43.1338H73.5607V47.7358H68.9587V43.1338Z" fill="black"/>
<path d="M78.4796 70.4136L83.1148 70.3288" stroke="black" stroke-width="3.71628" stroke-linecap="round"/>
</svg>
